<?xml version="1.0" encoding="UTF-8"?>
<svg id="Layer_1" data-name="Layer 1" xmlns="http://www.w3.org/2000/svg" viewBox="0 0 1080 1080">
  <defs>
    <style>
      .cls-1 {
        fill: #101d42;
      }
    </style>
  </defs>
  <g>
    <path class="cls-1" d="m552.66,737.48l-70.75,110.13-52.04,11.31v-78.8l121.03-121.03c15.97,22.63,17.65,53.67,1.76,78.39Z"/>
    <path class="cls-1" d="m655.72,701.41v130.92l-37.66,37.66-42.6-66.3,36.4-167.19c25.69,10.33,43.87,35.54,43.87,64.91Z"/>
  </g>
  <g>
    <path class="cls-1" d="m446.5,712.11l-119.07,54.37-49.87-18.59,42.6-66.3,167.19-36.4c1.27,27.69-14.13,54.69-40.85,66.91Z"/>
    <path class="cls-1" d="m552.66,737.48l-70.75,110.13-52.04,11.31v-78.8l121.03-121.03c15.97,22.63,17.65,53.67,1.76,78.39Z"/>
  </g>
  <g>
    <path class="cls-1" d="m441.43,599.17c-13.93,23.98-41.46,38.36-70.54,34.19l-129.57-18.63-31.9-42.6,71.69-32.76,160.33,59.8Z"/>
    <path class="cls-1" d="m446.5,712.11l-119.07,54.37-49.87-18.59,42.6-66.3,167.19-36.4c1.27,27.69-14.13,54.69-40.85,66.91Z"/>
  </g>
  <g>
    <path class="cls-1" d="m427.71,535.61c-24.67,12.62-55.64,9.84-77.86-9.4l-98.89-85.7-3.8-53.14,77.98,11.23,102.57,137Z"/>
    <path class="cls-1" d="m441.43,599.17c-13.93,23.98-41.46,38.36-70.54,34.19l-129.57-18.63-31.9-42.6,71.69-32.76,160.33,59.8Z"/>
  </g>
  <g>
    <path class="cls-1" d="m325.14,398.61l102.57,137c-24.67,12.62-55.64,9.84-77.86-9.4l-98.89-85.7-3.8-53.14,77.98,11.23Z"/>
    <path class="cls-1" d="m450.5,474.7c-27.57-2.7-52.12-21.77-60.41-49.96l-36.84-125.61,25.49-46.73,59.56,51.63,12.21,170.66Z"/>
  </g>
  <g>
    <path class="cls-1" d="m438.29,304.04l12.21,170.66c-27.57-2.7-52.12-21.77-60.41-49.96l-36.84-125.61,25.49-46.73,59.56,51.63Z"/>
    <path class="cls-1" d="m584.61,285.62l-81.98,150.2c-21.73-17.2-32.07-46.53-23.81-74.71l36.88-125.57,46.73-25.53,22.18,75.61Z"/>
  </g>
  <g>
    <path class="cls-1" d="m584.61,285.62l-81.98,150.2c-21.73-17.2-32.07-46.53-23.81-74.71l36.88-125.57,46.73-25.53,22.18,75.61Z"/>
    <path class="cls-1" d="m739.87,273.65l-22.22,75.61-150.16,81.98c-8.99-26.22-1.84-56.45,20.34-75.69l98.93-85.7,53.1,3.8Z"/>
  </g>
  <g>
    <path class="cls-1" d="m717.65,349.26l-150.16,81.98c-8.99-26.22-1.84-56.45,20.34-75.69l98.93-85.7,53.1,3.8-22.22,75.61Z"/>
    <path class="cls-1" d="m854.73,423.11l-59.56,51.59-170.62-12.21c6.62-26.92,28.92-48.49,58-52.65l129.57-18.63,42.6,31.9Z"/>
  </g>
  <g>
    <path class="cls-1" d="m795.18,474.7l-170.62-12.21c6.62-26.92,28.92-48.49,58-52.65l129.57-18.63,42.6,31.9-59.56,51.59Z"/>
    <path class="cls-1" d="m870.58,610.93l-77.98,11.23-137-102.57c20.1-19.08,50.61-25.12,77.33-12.91l119.07,54.37,18.58,49.87Z"/>
  </g>
  <g>
    <path class="cls-1" d="m722.92,615.38l70.75,110.13-11.32,52-71.69-32.72-59.8-160.33c27.25-5.15,56.17,6.21,72.06,30.92Z"/>
    <path class="cls-1" d="m792.6,622.17l-137-102.57c20.1-19.08,50.61-25.12,77.33-12.91l119.07,54.37,18.58,49.87-77.98,11.23Z"/>
  </g>
  <g>
    <path class="cls-1" d="m655.72,701.41v130.92l-37.66,37.66-42.6-66.3,36.4-167.19c25.69,10.33,43.87,35.54,43.87,64.91Z"/>
    <path class="cls-1" d="m793.67,725.51l-11.32,52-71.69-32.72-59.8-160.33c27.25-5.15,56.17,6.21,72.06,30.92l70.75,110.13Z"/>
  </g>
</svg>